<?xml version="1.0" encoding="utf-8"?>
<!-- Generator: Adobe Illustrator 23.1.0, SVG Export Plug-In . SVG Version: 6.00 Build 0)  -->
<svg version="1.1" xmlns="http://www.w3.org/2000/svg" xmlns:xlink="http://www.w3.org/1999/xlink" x="0px" y="0px"
	 viewBox="0 0 1733.42 873.47" style="enable-background:new 0 0 1733.42 873.47;" xml:space="preserve">
<style type="text/css">
	.st0{display:none;}
	.st1{display:inline;}
	.st2{fill:#41BEE3;}
	.st3{fill:#4D5E9A;}
	.st4{fill:#663A8E;}
	.st5{display:inline;fill:none;}
	.st6{fill:#767171;}
	.st7{font-family:'AgencyFB-Reg';}
	.st8{font-size:380px;}
</style>
<g id="редактируемый" class="st0">
	<g class="st1">
		<polygon class="st2" points="289.51,384.61 289.42,384.52 334.69,339.25 284.69,289.25 284.6,289.33 284.51,289.25 189.24,384.52 
			189.32,384.61 89.12,484.81 184.39,580.09 234.49,529.99 189.31,484.81 		"/>
		
			<rect x="349.37" y="494.55" transform="matrix(0.7071 -0.7071 0.7071 0.7071 -262.0519 427.3185)" class="st2" width="70.84" height="70.87"/>
		
			<rect x="249.16" y="494.56" transform="matrix(0.7071 -0.7071 0.7071 0.7071 -291.401 356.4636)" class="st3" width="70.87" height="70.84"/>
		<polygon class="st3" points="580.26,484.81 480.06,384.61 480.14,384.52 384.87,289.25 384.78,289.33 384.7,289.25 334.69,339.25 
			379.96,384.52 379.87,384.61 480.08,484.81 434.9,529.99 484.99,580.09 		"/>
		<polygon class="st4" points="379.87,384.61 379.96,384.52 334.69,339.25 289.42,384.52 289.51,384.61 189.31,484.81 
			234.49,529.99 284.6,479.88 334.69,529.97 384.78,479.88 434.9,529.99 480.08,484.81 		"/>
	</g>
	<rect x="610.16" y="287.84" class="st5" width="1065.07" height="469.25"/>
	<text transform="matrix(1 0 0 1 610.1602 578.1554)" class="st1"><tspan x="0" y="0" class="st6 st7 st8">MOS</tspan><tspan x="517.86" y="0" class="st4 st7 st8">AI</tspan><tspan x="745.53" y="0" class="st6 st7 st8">C</tspan></text>
</g>
<g id="кривые">
	<g>
		<polygon class="st2" points="289.51,384.61 289.42,384.52 334.69,339.25 284.69,289.25 284.6,289.33 284.51,289.25 189.24,384.52 
			189.32,384.61 89.12,484.81 184.39,580.09 234.49,529.99 189.31,484.81 		"/>
		
			<rect x="349.37" y="494.55" transform="matrix(0.7071 -0.7071 0.7071 0.7071 -262.0519 427.3185)" class="st2" width="70.84" height="70.87"/>
		
			<rect x="249.16" y="494.56" transform="matrix(0.7071 -0.7071 0.7071 0.7071 -291.401 356.4636)" class="st3" width="70.87" height="70.84"/>
		<polygon class="st3" points="580.26,484.81 480.06,384.61 480.14,384.52 384.87,289.25 384.78,289.33 384.7,289.25 334.69,339.25 
			379.96,384.52 379.87,384.61 480.08,484.81 434.9,529.99 484.99,580.09 		"/>
		<polygon class="st4" points="379.87,384.61 379.96,384.52 334.69,339.25 289.42,384.52 289.51,384.61 189.31,484.81 
			234.49,529.99 284.6,479.88 334.69,529.97 384.78,479.88 434.9,529.99 480.08,484.81 		"/>
	</g>
	<g>
		<path class="st6" d="M776.97,578.16h-24.31V394.28c0-2.6,0.86-10.21,2.6-22.82l-47.5,179.42h-5.2l-47.5-179.42
			c1.73,12.74,2.6,20.35,2.6,22.82v183.88h-24.31V287.77h23.94l47.13,188.89c0.25,0.99,0.49,3.77,0.74,8.35
			c0-1.86,0.25-4.64,0.74-8.35l47.13-188.89h23.94V578.16z"/>
		<path class="st6" d="M946,557.56c0,6.06-1.95,11.01-5.84,14.84c-3.9,3.84-8.88,5.75-14.94,5.75h-81.27
			c-6.06,0-11.01-1.92-14.84-5.75c-3.84-3.83-5.75-8.78-5.75-14.84V308.37c0-6.06,1.92-11.01,5.75-14.84
			c3.83-3.83,8.78-5.75,14.84-5.75h81.27c6.06,0,11.04,1.92,14.94,5.75c3.9,3.84,5.84,8.78,5.84,14.84V557.56z M920.21,555.33V310.6
			h-71.06v244.74H920.21z"/>
		<path class="st6" d="M1105.57,557.56c0,6.06-1.89,11.01-5.66,14.84c-3.77,3.84-8.69,5.75-14.75,5.75h-73.11
			c-6.06,0-11.04-1.92-14.94-5.75c-3.9-3.83-5.84-8.78-5.84-14.84V483.9h25.79v71.44h62.71v-69.21l-80.16-96.86
			c-5.57-6.68-8.35-14.04-8.35-22.08v-58.82c0-6.06,1.95-11.01,5.84-14.84c3.9-3.83,8.87-5.75,14.94-5.75h73.11
			c6.06,0,10.98,1.92,14.75,5.75c3.77,3.84,5.66,8.78,5.66,14.84v67.54h-25.79V310.6h-62.71v61.23l80.53,96.86
			c5.32,6.43,7.98,13.67,7.98,21.71V557.56z"/>
		<path class="st4" d="M1268.3,578.16h-25.61l-10.21-64.57h-57.71l-10.21,64.57h-24.86v-0.74l51.77-290.38h25.42L1268.3,578.16z
			 M1229.14,490.76l-25.42-157.34l-25.61,157.34H1229.14z"/>
		<path class="st4" d="M1330.45,578.16h-25.79V287.77h25.79V578.16z"/>
		<path class="st6" d="M1495.22,557.56c0,6.06-1.98,11.01-5.94,14.84c-3.96,3.84-8.97,5.75-15.03,5.75h-74.78
			c-6.06,0-11.01-1.92-14.84-5.75c-3.84-3.83-5.75-8.78-5.75-14.84V308.37c0-6.06,1.92-11.01,5.75-14.84
			c3.83-3.83,8.78-5.75,14.84-5.75h74.78c6.06,0,11.07,1.92,15.03,5.75c3.96,3.84,5.94,8.78,5.94,14.84v67.54h-25.98V310.6h-64.57
			v244.74h64.57V483.9h25.98V557.56z"/>
	</g>
</g>
</svg>
